{
    "accessors" : [
        {
            "bufferView" : 0, 
            "componentType" : 5121, 
            "count" : 36, 
            "max" : [
                23
            ], 
            "min" : [
                0
            ], 
            "type" : "SCALAR"
        }, 
        {
            "bufferView" : 1, 
            "componentType" : 5126, 
            "count" : 24, 
            "max" : [
                1.0000004768371582, 
                1.0, 
                1.0000005960464478
            ], 
            "min" : [
                -1.0000003576278687, 
                -1.0, 
                -1.0000003576278687
            ], 
            "type" : "VEC3"
        }, 
        {
            "bufferView" : 2, 
            "componentType" : 5126, 
            "count" : 24, 
            "max" : [
                1.0, 
                1.0, 
                1.0
            ], 
            "min" : [
                -1.0, 
                -1.0, 
                -1.0
            ], 
            "type" : "VEC3"
        }, 
        {
            "bufferView" : 3, 
            "componentType" : 5126, 
            "count" : 36, 
            "max" : [
                0.5
            ], 
            "min" : [
                -0.9583333333333334
            ], 
            "type" : "SCALAR"
        }, 
        {
            "bufferView" : 4, 
            "componentType" : 5126, 
            "count" : 36, 
            "max" : [
                8.18156909942627, 
                4.529487609863281, 
                4.728754997253418
            ], 
            "min" : [
                1.1360087394714355, 
                2.2596054077148438, 
                1.6717884540557861
            ], 
            "type" : "VEC3"
        }, 
        {
            "bufferView" : 5, 
            "componentType" : 5126, 
            "count" : 36, 
            "max" : [
                0.5
            ], 
            "min" : [
                -0.9583333333333334
            ], 
            "type" : "SCALAR"
        }, 
        {
            "bufferView" : 6, 
            "componentType" : 5126, 
            "count" : 36, 
            "max" : [
                0.0, 
                0.0, 
                -0.0, 
                1.0
            ], 
            "min" : [
                0.0, 
                0.0, 
                -0.0, 
                1.0
            ], 
            "type" : "VEC4"
        }, 
        {
            "bufferView" : 7, 
            "componentType" : 5126, 
            "count" : 36, 
            "max" : [
                0.5
            ], 
            "min" : [
                -0.9583333333333334
            ], 
            "type" : "SCALAR"
        }, 
        {
            "bufferView" : 8, 
            "componentType" : 5126, 
            "count" : 36, 
            "max" : [
                1.0, 
                1.0, 
                1.0
            ], 
            "min" : [
                1.0, 
                1.0, 
                1.0
            ], 
            "type" : "VEC3"
        }
    ], 
    "animations" : [
        {
            "channels" : [
                {
                    "sampler" : 0, 
                    "target" : {
                        "node" : 2, 
                        "path" : "translation"
                    }
                }, 
                {
                    "sampler" : 1, 
                    "target" : {
                        "node" : 2, 
                        "path" : "rotation"
                    }
                }, 
                {
                    "sampler" : 2, 
                    "target" : {
                        "node" : 2, 
                        "path" : "scale"
                    }
                }
            ], 
            "samplers" : [
                {
                    "input" : 3, 
                    "interpolation" : "LINEAR", 
                    "output" : 4
                }, 
                {
                    "input" : 5, 
                    "interpolation" : "LINEAR", 
                    "output" : 6
                }, 
                {
                    "input" : 7, 
                    "interpolation" : "LINEAR", 
                    "output" : 8
                }
            ]
        }
    ], 
    "asset" : {
        "generator" : "Khronos Blender glTF 2.0 exporter", 
        "version" : "2.0"
    }, 
    "bufferViews" : [
        {
            "buffer" : 0, 
            "byteLength" : 36, 
            "byteOffset" : 0, 
            "target" : 34963
        }, 
        {
            "buffer" : 0, 
            "byteLength" : 288, 
            "byteOffset" : 36, 
            "target" : 34962
        }, 
        {
            "buffer" : 0, 
            "byteLength" : 288, 
            "byteOffset" : 324, 
            "target" : 34962
        }, 
        {
            "buffer" : 0, 
            "byteLength" : 144, 
            "byteOffset" : 612
        }, 
        {
            "buffer" : 0, 
            "byteLength" : 432, 
            "byteOffset" : 756
        }, 
        {
            "buffer" : 0, 
            "byteLength" : 144, 
            "byteOffset" : 1188
        }, 
        {
            "buffer" : 0, 
            "byteLength" : 576, 
            "byteOffset" : 1332
        }, 
        {
            "buffer" : 0, 
            "byteLength" : 144, 
            "byteOffset" : 1908
        }, 
        {
            "buffer" : 0, 
            "byteLength" : 432, 
            "byteOffset" : 2052
        }
    ], 
    "buffers" : [
        {
            "byteLength" : 2484, 
            "uri" : "tester.bin"
        }
    ], 
    "cameras" : [
        {
            "name" : "Camera", 
            "perspective" : {
                "aspectRatio" : 1.7777777777777777, 
                "yfov" : 0.5033799372418416, 
                "zfar" : 100.0, 
                "znear" : 0.10000000149011612
            }, 
            "type" : "perspective"
        }
    ], 
    "materials" : [
        {
            "name" : "Material", 
            "pbrMetallicRoughness" : {
                "baseColorFactor" : [
                    0.6400000190734865, 
                    0.6400000190734865, 
                    0.6400000190734865, 
                    1.0
                ], 
                "metallicFactor" : 0.0
            }
        }
    ], 
    "meshes" : [
        {
            "name" : "Cube", 
            "primitives" : [
                {
                    "attributes" : {
                        "NORMAL" : 2, 
                        "POSITION" : 1
                    }, 
                    "indices" : 0, 
                    "material" : 0
                }
            ]
        }
    ], 
    "nodes" : [
        {
            "camera" : 0, 
            "name" : "Correction_Camera", 
            "rotation" : [
                -0.7071067690849304, 
                -0.0, 
                0.0, 
                0.7071067690849304
            ]
        }, 
        {
            "children" : [
                0
            ], 
            "name" : "Camera", 
            "rotation" : [
                0.483536034822464, 
                0.33687159419059753, 
                -0.20870360732078552, 
                0.7804827094078064
            ], 
            "translation" : [
                7.481131553649902, 
                5.34366512298584, 
                6.5076398849487305
            ]
        }, 
        {
            "mesh" : 0, 
            "name" : "Cube", 
            "translation" : [
                4.225096702575684, 
                2.2596054077148438, 
                4.728754997253418
            ]
        }, 
        {
            "name" : "Lamp", 
            "rotation" : [
                0.16907575726509094, 
                0.7558802962303162, 
                -0.27217137813568115, 
                0.570947527885437
            ], 
            "scale" : [
                1.0, 
                1.0, 
                0.9999999403953552
            ], 
            "translation" : [
                4.076245307922363, 
                5.903861999511719, 
                -1.0054539442062378
            ]
        }
    ], 
    "scene" : 0, 
    "scenes" : [
        {
            "name" : "Scene", 
            "nodes" : [
                2, 
                3, 
                1
            ]
        }
    ]
}
